# xmcd
#
# Track frame offsets: 
#        180
#        23055
#        49059
#        70067
#        92191
#        114784
#        142453
#
# Disc length: 2230 seconds
#
# Revision: 8
# Processed by: cddbd v1.5.2PL0 Copyright (c) Steve Scherf et al.
# Submitted via: ExactAudioCopy v0.99pb5
#
DISCID=5d08b407
DTITLE=Johnny "Guitar" Watson - A Real Mother For Ya
DYEAR=1900
DGENRE=Blues
TTITLE0=A Real Mother For Ya
TTITLE1=Nothing Left To Be Desired
TTITLE2=Your Love Is My Love
TTITLE3=The Real Deal
TTITLE4=Tarzan
TTITLE5=I Wanna Thank You
TTITLE6=Lover Jones
EXTD=Sequel NEM CD 775 (P) 1996\n\nOriginally issued on DJM in 1977.
EXTT0=
EXTT1=
EXTT2=
EXTT3=
EXTT4=
EXTT5=
EXTT6=
PLAYORDER=
